<svg width="328" height="429" viewBox="0 0 328 429" fill="none" xmlns="http://www.w3.org/2000/svg">
<rect x="15" y="65" width="298" height="298" rx="18" stroke="#3395EB" stroke-width="30"/>
<path d="M219.571 150.571H241V172H219.571V150.571ZM198.143 150.571H219.571V172H198.143V150.571ZM198.143 129.143H219.571V150.571H198.143V129.143ZM219.571 129.143H241V150.571H219.571V129.143ZM198.143 107.714H219.571V129.143H198.143V107.714ZM176.714 107.714H198.143V129.143H176.714V107.714ZM176.714 129.143H198.143V150.571H176.714V129.143ZM155.286 129.143H176.714V150.571H155.286V129.143ZM133.857 129.143H155.286V150.571H133.857V129.143ZM133.857 107.714H155.286V129.143H133.857V107.714ZM112.429 107.714H133.857V129.143H112.429V107.714ZM155.286 107.714H176.714V129.143H155.286V107.714ZM112.429 129.143H133.857V150.571H112.429V129.143ZM91 129.143H112.429V150.571H91V129.143ZM91 150.571H112.429V172H91V150.571ZM112.429 150.571H133.857V172H112.429V150.571ZM112.429 172H133.857V193.429H112.429V172ZM112.429 193.429H133.857V214.857H112.429V193.429ZM91 193.429H112.429V214.857H91V193.429ZM91 172H112.429V193.429H91V172ZM112.429 214.857H133.857V236.286H112.429V214.857ZM133.857 214.857H155.286V236.286H133.857V214.857ZM133.857 193.429H155.286V214.857H133.857V193.429ZM155.286 193.429H176.714V214.857H155.286V193.429ZM176.714 193.429H198.143V214.857H176.714V193.429ZM198.143 193.429H219.571V214.857H198.143V193.429ZM198.143 214.857H219.571V236.286H198.143V214.857ZM176.714 214.857H198.143V236.286H176.714V214.857ZM155.286 214.857H176.714V236.286H155.286V214.857ZM219.571 214.857H241V236.286H219.571V214.857ZM219.571 236.286H241V257.714H219.571V236.286ZM198.143 236.286H219.571V257.714H198.143V236.286ZM176.714 279.143H198.143V300.571H176.714V279.143ZM198.143 279.143H219.571V300.571H198.143V279.143ZM198.143 257.714H219.571V279.143H198.143V257.714ZM219.571 257.714H241V279.143H219.571V257.714ZM219.571 279.143H241V300.571H219.571V279.143ZM198.143 300.571H219.571V322H198.143V300.571ZM176.714 300.571H198.143V322H176.714V300.571ZM155.286 300.571H176.714V322H155.286V300.571ZM133.857 300.571H155.286V322H133.857V300.571ZM112.429 300.571H133.857V322H112.429V300.571ZM112.429 279.143H133.857V300.571H112.429V279.143ZM133.857 279.143H155.286V300.571H133.857V279.143ZM155.286 279.143H176.714V300.571H155.286V279.143ZM91 279.143H112.429V300.571H91V279.143ZM91 257.714H112.429V279.143H91V257.714ZM112.429 257.714H133.857V279.143H112.429V257.714Z" fill="#3395EB"/>
</svg>
